PathFileType	4	(X/Y/Z)	/Users/itak/Documents/Research/Walk-IL/dataset/trc/00398_00012.trc
DataRate	CameraRate	NumFrames	NumMarkers	Units	OrigDataRate	OrigDataStartFrame	OrigNumFrames
100.000000	100.000000	4	53	mm	100.000000	94	757
Frame#	Time	RPSI			LPSI			L3			STRN			T10			C7			CLAV			RBAK			LBAK			LSHO			LUPA			LAEL			LAOL			LWTS			LWPS			LFRA			LIFD			LHPS			LHTS			RSHO			RUPA			RAEL			RAOL			RWTS			RWPS			RFRA			RIFD			RHTS			RHPS			RBHD			LFHD			RFHD			LBHD			LHIP			RHIP			RASI			LASI			LKNE			LTHI			LANK			LTIP			LTOE			LMT1			LMT5			LHEE			RKNE			RTHI			RANK			RTIP			RTOE			RMT1			RMT5			RHEE			
		X1	Y1	Z1	X2	Y2	Z2	X3	Y3	Z3	X4	Y4	Z4	X5	Y5	Z5	X6	Y6	Z6	X7	Y7	Z7	X8	Y8	Z8	X9	Y9	Z9	X10	Y10	Z10	X11	Y11	Z11	X12	Y12	Z12	X13	Y13	Z13	X14	Y14	Z14	X15	Y15	Z15	X16	Y16	Z16	X17	Y17	Z17	X18	Y18	Z18	X19	Y19	Z19	X20	Y20	Z20	X21	Y21	Z21	X22	Y22	Z22	X23	Y23	Z23	X24	Y24	Z24	X25	Y25	Z25	X26	Y26	Z26	X27	Y27	Z27	X28	Y28	Z28	X29	Y29	Z29	X30	Y30	Z30	X31	Y31	Z31	X32	Y32	Z32	X33	Y33	Z33	X34	Y34	Z34	X35	Y35	Z35	X36	Y36	Z36	X37	Y37	Z37	X38	Y38	Z38	X39	Y39	Z39	X40	Y40	Z40	X41	Y41	Z41	X42	Y42	Z42	X43	Y43	Z43	X44	Y44	Z44	X45	Y45	Z45	X46	Y46	Z46	X47	Y47	Z47	X48	Y48	Z48	X49	Y49	Z49	X50	Y50	Z50	X51	Y51	Z51	X52	Y52	Z52	X53	Y53	Z53	

95	0.9400000000000001	54.39155960083008	983.5455322265625	1261.752563476562	43.27583694458008	968.4180908203125	1130.19677734375	52.96457290649414	1059.257202148438	1199.694946289062	300.9664306640625	1197.066162109375	1203.081909179688	48.85768508911133	1163.914184570312	1195.489013671875	107.2654571533203	1409.311889648438	1188.7001953125	256.32666015625	1319.39599609375	1201.645263671875	47.70624160766602	1268.328979492188	1252.850708007812	95.49247741699219	1374.468017578125	1083.651245117188	186.6432342529297	1384.290649414062	1039.377685546875	162.653564453125	1271.429931640625	965.0283203125	177.0138854980469	1075.074462890625	930.4445190429688	119.1236343383789	1051.547973632812	988.7739868164062	276.9314880371094	864.5942993164062	970.6962890625	229.8830718994141	850.9341430664062	904.2537231445312	196.5760803222656	971.62939453125	917.0376586914062	283.5430603027344	684.9818115234375	963.9140014648438	247.8172760009766	765.4434204101562	911.1000366210938	300.13037109375	768.3968505859375	948.6187133789062	155.4671173095703	1383.191162109375	1349.335083007812	135.8854370117188	1320.387939453125	1407.743286132812	130.4208984375	1060.269653320312	1462.165893554688	113.4067306518555	1046.462036132812	1369.786376953125	252.4298706054688	840.0971069335938	1450.420776367188	207.9850463867188	834.0147705078125	1508.57470703125	154.4671478271484	996.0049438476562	1484.084228515625	245.5364685058594	667.735107421875	1463.772583007812	266.9632873535156	736.2442016601562	1477.419555664062	209.6583709716797	745.9947509765625	1514.602294921875	165.4125213623047	1595.3408203125	1278.633178710938	296.6409912109375	1585.0830078125	1128.325439453125	296.5369262695312	1595.610107421875	1251.383422851562	147.7423706054688	1579.392822265625	1117.29345703125	136.0585632324219	955.5123291015625	1015.89697265625	139.7357482910156	958.939208984375	1376.625732421875	273.7072143554688	960.7879028320312	1320.922973632812	249.9430847167969	955.919189453125	1060.058227539062	322.6348876953125	484.6923217773438	1054.614501953125	279.3345642089844	616.2312622070312	1039.6259765625	75.55519866943359	104.8060607910156	1077.125610351562	196.9713439941406	283.4896545410156	1053.16748046875	276.9989624023438	52.01097869873047	1132.693725585938	204.1245574951172	65.613037109375	1166.56591796875	193.6605529785156	64.45043182373047	1060.94189453125	39.33970642089844	114.8226165771484	1133.255126953125	168.72607421875	465.9660034179688	1345.213623046875	214.6659393310547	727.6865844726562	1372.85498046875	64.44309234619141	55.83991622924805	1305.322998046875	164.9481658935547	337.90673828125	1327.0712890625	245.7326965332031	41.78629302978516	1249.058959960938	171.7688140869141	44.26509857177734	1216.006713867188	148.0226898193359	45.99495697021484	1314.637573242188	-7.748566627502441	42.21421432495117	1248.915161132812	
96	0.9500000000000001	57.2125244140625	983.904052734375	1261.673950195312	46.52120971679688	968.5936279296875	1130.028930664062	56.03034591674805	1059.64306640625	1199.99267578125	304.4039306640625	1196.9833984375	1202.785888671875	51.77441024780273	1164.39306640625	1196.116088867188	111.1394882202148	1409.6083984375	1189.423095703125	260.056640625	1319.401611328125	1201.550048828125	51.47506713867188	1268.792846679688	1253.734619140625	98.74787902832031	1374.89794921875	1084.436767578125	189.7228698730469	1384.549560546875	1039.680786132812	164.8426208496094	1271.843017578125	965.3555297851562	178.30810546875	1075.429565429688	930.3950805664062	120.7664337158203	1052.1279296875	989.1262817382812	278.3083190917969	864.9482421875	970.0639038085938	230.91259765625	851.314697265625	903.8652954101562	197.6768035888672	972.0174560546875	916.8726806640625	284.9064331054688	685.3410034179688	963.192626953125	248.8355560302734	765.8167724609375	910.5931396484375	301.3517456054688	768.7484741210938	947.8282470703125	160.0382843017578	1383.353515625	1349.80029296875	140.699462890625	1320.615966796875	1408.500732421875	134.4912872314453	1060.507690429688	1462.7529296875	117.278678894043	1046.463623046875	1370.1318359375	255.2319030761719	839.6771240234375	1450.673217773438	211.0548553466797	833.9448852539062	1509.000854492188	158.3391418457031	996.2105712890625	1484.6083984375	247.2867279052734	667.3521728515625	1464.174438476562	269.2086181640625	735.6768188476562	1477.64794921875	212.1209869384766	745.858642578125	1515.097412109375	170.8779144287109	1595.572998046875	1279.242919921875	300.3480834960938	1584.731689453125	1127.454833984375	301.6500549316406	1595.294799804688	1250.4560546875	151.3917846679688	1579.726196289062	1118.023071289062	138.6242828369141	956.3460083007812	1015.800964355469	142.5985717773438	958.9300537109375	1376.450317382812	276.6373291015625	960.4627075195312	1320.754028320312	252.468505859375	956.53759765625	1060.027221679688	330.4403381347656	487.1963500976562	1053.908569335938	284.9315185546875	618.2177124023438	1038.896850585938	86.73027038574219	105.3241424560547	1078.4794921875	206.7266540527344	284.8365478515625	1053.58349609375	288.6098937988281	54.64888381958008	1133.956909179688	215.7957763671875	67.61009979248047	1167.89404296875	205.2047424316406	66.03546905517578	1062.18505859375	50.59838485717773	115.1846237182617	1134.631591796875	168.2575531005859	466.0135192871094	1345.505493164062	216.1965484619141	727.4963989257812	1372.668701171875	64.35558319091797	55.79673767089844	1305.33251953125	164.3924255371094	338.05029296875	1327.328125	245.6693267822266	41.780517578125	1249.176879882812	171.8790283203125	44.33094024658203	1216.076171875	148.0370788574219	45.98906707763672	1314.697143554688	-7.754059314727783	42.11057281494141	1248.778198242188	
97	0.96	60.22784805297852	984.2670288085938	1261.537719726562	49.99697113037109	968.8006591796875	1129.793823242188	59.25511932373047	1060.041015625	1200.203857421875	307.9939575195312	1196.936157226562	1202.460205078125	54.83853912353516	1164.863403320312	1196.617431640625	115.1229705810547	1409.898071289062	1190.076782226562	263.8904724121094	1319.424194335938	1201.404541015625	55.35814666748047	1269.260375976562	1254.584716796875	102.1037902832031	1375.30859375	1085.178344726562	192.9021148681641	1384.794311523438	1039.93408203125	167.1284332275391	1272.232543945312	965.65380859375	179.6325225830078	1075.763549804688	930.3836059570312	122.4563522338867	1052.709838867188	989.5282592773438	279.688232421875	865.2471313476562	969.4359130859375	231.9163818359375	851.6585693359375	903.50244140625	198.7849273681641	972.3701171875	916.7295532226562	286.2190551757812	685.649169921875	962.4724731445312	249.8175964355469	766.1541137695312	910.1189575195312	302.5431823730469	769.0467529296875	947.035400390625	164.7177124023438	1383.546875	1350.200317382812	145.612548828125	1320.865966796875	1409.175903320312	138.7007751464844	1060.775512695312	1463.22998046875	121.290153503418	1046.5712890625	1370.423217773438	258.1991882324219	839.2924194335938	1450.853393554688	214.2342834472656	833.902587890625	1509.34912109375	162.3488464355469	996.4567260742188	1485.033203125	249.1419067382812	667.00244140625	1464.502685546875	271.5922241210938	735.1463012695312	1477.822143554688	214.7110900878906	745.7703247070312	1515.509033203125	176.458251953125	1595.808837890625	1279.766235351562	304.1456298828125	1584.358764648438	1126.550903320312	306.8594970703125	1594.959716796875	1249.43798828125	155.1371154785156	1580.086059570312	1118.759643554688	141.3651275634766	957.2575073242188	1015.661804199219	145.6698608398438	958.8989868164062	1376.212036132812	279.7510070800781	960.1366577148438	1320.508056640625	255.1716156005859	957.1907348632812	1059.939453125	337.9000549316406	489.6603088378906	1053.148071289062	290.2596130371094	620.1990966796875	1038.146484375	99.05557250976562	104.8906555175781	1079.935546875	216.8137359619141	285.7213134765625	1053.994384765625	301.7193603515625	57.19568252563477	1134.823364257812	228.9840545654297	69.19002532958984	1168.992431640625	218.02880859375	67.24339294433594	1063.255859375	63.08820343017578	114.3897018432617	1136.215087890625	167.8121185302734	466.0808715820312	1345.70166015625	217.9149017333984	727.2713623046875	1372.353759765625	64.30582427978516	55.77598190307617	1305.327392578125	163.8728790283203	338.2203063964844	1327.510498046875	245.6102600097656	41.78096771240234	1249.2763671875	172.0551910400391	44.42704391479492	1216.133666992188	148.0765686035156	45.99728775024414	1314.73779296875	-7.749760150909424	42.03670501708984	1248.6650390625	
98	0.97	63.44336318969727	984.6171264648438	1261.362915039062	53.59877777099609	969.0620727539062	1129.517578125	62.60016632080078	1060.438720703125	1200.35205078125	311.7377014160156	1196.907348632812	1202.098266601562	58.06098937988281	1165.3125	1197.002075195312	119.2204895019531	1410.1650390625	1190.66357421875	267.8272399902344	1319.451538085938	1201.216064453125	59.3557243347168	1269.71923828125	1255.41162109375	105.5654296875	1375.69091796875	1085.876342773438	196.1776733398438	1385.0126953125	1040.143310546875	169.5224304199219	1272.59716796875	965.9239501953125	181.0014343261719	1076.075439453125	930.4213256835938	124.2009582519531	1053.28759765625	989.9892578125	281.0772705078125	865.4749755859375	968.8058471679688	232.8886108398438	851.9530639648438	903.1589965820312	199.9136962890625	972.6798095703125	916.6099243164062	287.4615783691406	685.8883666992188	961.7554321289062	250.7616882324219	766.433349609375	909.6659545898438	303.7030029296875	769.27294921875	946.237548828125	169.5102386474609	1383.750122070312	1350.5361328125	150.6220855712891	1321.120849609375	1409.750854492188	143.0491180419922	1061.057861328125	1463.598876953125	125.4405746459961	1046.771484375	1370.665771484375	261.3377380371094	838.93359375	1450.968872070312	217.5305786132812	833.868408203125	1509.62451171875	166.4891052246094	996.7213745117188	1485.362182617188	251.1436767578125	666.6815185546875	1464.7548828125	274.1429138183594	734.6566162109375	1477.94677734375	217.4438629150391	745.716796875	1515.838134765625	182.1552886962891	1596.02587890625	1280.211791992188	308.0269775390625	1583.947265625	1125.611206054688	312.1618041992188	1594.594970703125	1248.327270507812	158.9656982421875	1580.43505859375	1119.527709960938	144.264892578125	958.2086791992188	1015.486206054688	148.9466400146484	958.83349609375	1375.916259765625	283.05029296875	959.7999267578125	1320.194458007812	258.0329895019531	957.8550415039062	1059.798217773438	345.0442504882812	492.0401916503906	1052.357421875	295.3925170898438	622.13671875	1037.388916015625	112.4783401489258	103.5836029052734	1081.462890625	227.2127838134766	286.1555786132812	1054.399169921875	316.2261657714844	59.59144973754883	1135.20361328125	243.6013488769531	70.31655883789062	1169.79638671875	232.0299377441406	68.08819580078125	1064.086181640625	76.79541778564453	112.5183563232422	1137.987182617188	167.4429016113281	466.1637268066406	1345.804321289062	219.8402404785156	727.0057373046875	1371.914428710938	64.29731750488281	55.78101348876953	1305.304809570312	163.4139862060547	338.4035034179688	1327.626953125	245.5628814697266	41.78952789306641	1249.359252929688	172.2720489501953	44.54306030273438	1216.179809570312	148.1409301757812	46.01971054077148	1314.761352539062	-7.736839771270752	41.99961853027344	1248.577392578125	
